/* XPM */
static char * ap_xpm[] = {
"21 21 25 1",
" 	c None",
".	c #1F6DFF",
"+	c #2469FF",
"@	c #2D64FF",
"#	c #3760FF",
"$	c #4B58FF",
"%	c #5454FF",
"&	c #5E50FF",
"*	c #684BFF",
"=	c #7247FF",
"-	c #88C1FF",
";	c #7B43FF",
">	c #98BDFF",
",	c #863FFF",
"'	c #A6BAFF",
")	c #903AFF",
"!	c #B4B7FF",
"~	c #9936FF",
"{	c #A332FF",
"]	c #D0B0FF",
"^	c #AC2EFF",
"/	c #DFADFF",
"(	c #B62AFF",
"_	c #C025FF",
":	c #C026FF",
"                     ",
"             .       ",
"            +        ",
"           @ @       ",
"            #        ",
"                     ",
"      $$$    $$$     ",
"     %    %%    %    ",
"    &           &    ",
"   *           *     ",
"   = -         =     ",
"   ; >         ;     ",
"   , '         ,     ",
"   ) !               ",
"                ~    ",
"    { ]          {   ",
"    ^  /         ^   ",
"     (          (    ",
"      _  ___:  _     ",
"                     ",
"                     "};
