/* XPM */
static char * app_xpm[] = {
"18 18 26 1",
" 	c None",
".	c #1E6CFF",
"+	c #2767FF",
"@	c #3462FF",
"#	c #3362FF",
"$	c #3F5DFF",
"%	c #4B58FF",
"&	c #4A58FF",
"*	c #5553FF",
"=	c #5653FF",
"-	c #614EFF",
";	c #70C6FF",
">	c #6C4AFF",
",	c #91BFFF",
"'	c #7845FF",
")	c #A2BAFF",
"!	c #843FFF",
"~	c #B2B7FF",
"{	c #8F3BFF",
"]	c #9A36FF",
"^	c #A531FF",
"/	c #D3AFFF",
"(	c #B12CFF",
"_	c #BD27FF",
":	c #BC27FF",
"<	c #C722FF",
"                  ",
"           .      ",
"          +       ",
"         @ #      ",
"         $        ",
"     %&%   %&     ",
"    *         =   ",
"   - ;            ",
"             >    ",
"    ,        '    ",
"    )        !    ",
"    ~        {    ",
"   ]          ]   ",
"   ^ /            ",
"    (         (   ",
"     _   _   :    ",
"      <    <<     ",
"                  "};
