/* XPM */
static char * b_xpm[] = {
"20 20 32 1",
" 	c None",
".	c #8D6C9F",
"+	c #AA9EBD",
"@	c #D5DEEE",
"#	c #D8E0EF",
"$	c #CED8ED",
"%	c #D8E0ED",
"&	c #8F71A2",
"*	c #8E6DA0",
"=	c #C9D1E8",
"-	c #C0C3DC",
";	c #B7B6D2",
">	c #CCD5EB",
",	c #CAD2E8",
"'	c #C8D0E6",
")	c #CBD5EB",
"!	c #A293B8",
"~	c #C1CCE6",
"{	c #C0C9E3",
"]	c #C9D1E7",
"^	c #C2CDE7",
"/	c #B4B6D4",
"(	c #B4B1CE",
"_	c #BDBFD9",
":	c #B6B4D0",
"<	c #B1B1D0",
"[	c #B4B5D3",
"}	c #C3CEE7",
"|	c #C6D1E9",
"1	c #A8A1C4",
"2	c #A196BB",
"3	c #B7BCD9",
"            ..      ",
"           +@.      ",
"          .#$       ",
"          %$.       ",
"          .         ",
"     ....  ..&.     ",
"    *$$$$=-$$$$$.   ",
"   .$$$$$$$$$$;$.   ",
"   >$$$$$$$$$,$.    ",
"  .$$$$$$$$$$.$     ",
"  .$$$$$$$$$$.'     ",
"  .$$$$$$$$$$.$     ",
"  .).$$$$$$$$!$.    ",
"   ~{]$$$$$$$$$$.   ",
"   &^$$$$$$$$$$$$.  ",
"   .^/$$$$$$$$$$(   ",
"    *^_:$$$$$$$$.   ",
"     <^[}^^^|^^.    ",
"      1^2...3^*     ",
"                    "};
