/* XPM */
static char * t_xpm[] = {
"21 21 37 1",
" 	c None",
".	c #8D6C9F",
"+	c #D7DEEC",
"@	c #CED8ED",
"#	c #D4D9E8",
"$	c #CFD9ED",
"%	c #ACA5C5",
"&	c #D2DCEE",
"*	c #CAD2E8",
"=	c #B0ABC9",
"-	c #9F8FB5",
";	c #9277A5",
">	c #C9D0E6",
",	c #9072A3",
"'	c #CDD7EC",
")	c #C3C7E0",
"!	c #9B88B0",
"~	c #C2C7DF",
"{	c #9881AC",
"]	c #9E8CB3",
"^	c #BFC3DC",
"/	c #C2CCE6",
"(	c #C1C5DE",
"_	c #9C8BB4",
":	c #ADABCB",
"<	c #C2CDE7",
"[	c #C2C8E1",
"}	c #B2B3D2",
"|	c #BEC6E1",
"1	c #C6CDE4",
"2	c #A399BE",
"3	c #C2C6DF",
"4	c #C6CCE4",
"5	c #C1CCE6",
"6	c #B0B0CF",
"7	c #BCC2DE",
"8	c #B6B9D7",
"             ..      ",
"           .+@.      ",
"           #$%       ",
"          .&*.       ",
"          ..         ",
"      ...    ...     ",
"    .%@@@=.-@@@@;    ",
"    >@@@@@@@@@@@@.   ",
"   ,@@@@@@@@@@.@.    ",
"   '@@@@@@@@@@@*     ",
"  .@@@@@@@@@@@)!     ",
"  .@@@@@@@@@@@~{     ",
"   @@@@@@@@@@@]^     ",
"   /(*@@@@@@@@.@.    ",
"   _:.@@@@@@@@@@@.   ",
"   .<[@@@@@@@@@@@'   ",
"    }|1@@@@@@@@@@.   ",
"    .<23@@@@@@@@4    ",
"     .<2<<<<<<<<.    ",
"      .56....78.     ",
"                     "};
